G04 #@! TF.FileFunction,Legend,Bot*
%FSLAX46Y46*%
G04 Gerber Fmt 4.6, Leading zero omitted, Abs format (unit mm)*
G04 Created by KiCad (PCBNEW 4.0.1-stable) date 2016 July 16, Saturday 18:17:22*
%MOMM*%
G01*
G04 APERTURE LIST*
%ADD10C,0.100000*%
%ADD11C,0.200000*%
G04 APERTURE END LIST*
D10*
D11*
X138690000Y-107067333D02*
X138309048Y-107067333D01*
X138766191Y-107295905D02*
X138499524Y-106495905D01*
X138232857Y-107295905D01*
X137966191Y-107295905D02*
X137966191Y-106762571D01*
X137966191Y-106914952D02*
X137928096Y-106838762D01*
X137890000Y-106800667D01*
X137813810Y-106762571D01*
X137737619Y-106762571D01*
X137470953Y-107295905D02*
X137470953Y-106762571D01*
X137470953Y-106838762D02*
X137432858Y-106800667D01*
X137356667Y-106762571D01*
X137242381Y-106762571D01*
X137166191Y-106800667D01*
X137128096Y-106876857D01*
X137128096Y-107295905D01*
X137128096Y-106876857D02*
X137090000Y-106800667D01*
X137013810Y-106762571D01*
X136899524Y-106762571D01*
X136823334Y-106800667D01*
X136785239Y-106876857D01*
X136785239Y-107295905D01*
X135947143Y-107219714D02*
X135985238Y-107257810D01*
X136099524Y-107295905D01*
X136175714Y-107295905D01*
X136290000Y-107257810D01*
X136366191Y-107181619D01*
X136404286Y-107105429D01*
X136442381Y-106953048D01*
X136442381Y-106838762D01*
X136404286Y-106686381D01*
X136366191Y-106610190D01*
X136290000Y-106534000D01*
X136175714Y-106495905D01*
X136099524Y-106495905D01*
X135985238Y-106534000D01*
X135947143Y-106572095D01*
X135490000Y-107295905D02*
X135566191Y-107257810D01*
X135604286Y-107219714D01*
X135642381Y-107143524D01*
X135642381Y-106914952D01*
X135604286Y-106838762D01*
X135566191Y-106800667D01*
X135490000Y-106762571D01*
X135375714Y-106762571D01*
X135299524Y-106800667D01*
X135261429Y-106838762D01*
X135223333Y-106914952D01*
X135223333Y-107143524D01*
X135261429Y-107219714D01*
X135299524Y-107257810D01*
X135375714Y-107295905D01*
X135490000Y-107295905D01*
X134880476Y-107295905D02*
X134880476Y-106762571D01*
X134880476Y-106838762D02*
X134842381Y-106800667D01*
X134766190Y-106762571D01*
X134651904Y-106762571D01*
X134575714Y-106800667D01*
X134537619Y-106876857D01*
X134537619Y-107295905D01*
X134537619Y-106876857D02*
X134499523Y-106800667D01*
X134423333Y-106762571D01*
X134309047Y-106762571D01*
X134232857Y-106800667D01*
X134194762Y-106876857D01*
X134194762Y-107295905D01*
X133813809Y-107295905D02*
X133813809Y-106762571D01*
X133813809Y-106838762D02*
X133775714Y-106800667D01*
X133699523Y-106762571D01*
X133585237Y-106762571D01*
X133509047Y-106800667D01*
X133470952Y-106876857D01*
X133470952Y-107295905D01*
X133470952Y-106876857D02*
X133432856Y-106800667D01*
X133356666Y-106762571D01*
X133242380Y-106762571D01*
X133166190Y-106800667D01*
X133128095Y-106876857D01*
X133128095Y-107295905D01*
M02*
